<?xml version="1.0"?>
<svg xmlns="http://www.w3.org/2000/svg" viewBox="0 -31 512 512" width="512px" height="512px"><path d="m0 43.785156v406.214844h509.757812zm0 0" fill="#ff8300"/><path d="m362 180c0-33.089844-26.910156-60-60-60s-60 26.910156-60 60 26.910156 60 60 60 60-26.910156 60-60zm0 0" fill="#ff8300"/><path d="m452 240c-33.089844 0-60 26.910156-60 60s26.910156 60 60 60 60-26.910156 60-60-26.910156-60-60-60zm0 0" fill="#ff8300"/><path d="m212 60c0-33.089844-26.910156-60-60-60s-60 26.910156-60 60 26.910156 60 60 60 60-26.910156 60-60zm0 0" fill="#ff8300"/></svg>
